<?xml version="1.0" standalone="no"?>
<!DOCTYPE svg PUBLIC "-//W3C//DTD SVG 20010904//EN"
 "http://www.w3.org/TR/2001/REC-SVG-20010904/DTD/svg10.dtd">
<svg version="1.0" xmlns="http://www.w3.org/2000/svg"
 width="5000.000000pt" height="3000.000000pt" viewBox="0 0 5000.000000 3000.000000"
 preserveAspectRatio="xMidYMid meet">
<metadata>
Created by potrace 1.16, written by Peter Selinger 2001-2019
</metadata>
<g transform="translate(0.000000,3000.000000) scale(0.100000,-0.100000)"
fill="#000000" stroke="none">
<path d="M25533 29151 c-212 -73 -540 -445 -720 -816 -29 -60 -53 -115 -53
-121 0 -7 -35 -20 -77 -29 -228 -50 -573 -173 -830 -295 -719 -341 -1463 -952
-2164 -1776 l-76 -89 24 -70 c13 -38 28 -99 34 -135 6 -36 27 -135 47 -220 32
-137 36 -171 37 -290 0 -128 -1 -138 -29 -197 -30 -65 -95 -136 -142 -153 -42
-16 -122 -12 -162 9 -55 29 -107 88 -141 161 -31 66 -37 88 -86 305 -152 670
-565 1389 -1050 1828 -356 322 -783 552 -1192 643 -46 11 -83 22 -83 26 0 15
117 41 207 47 480 31 1070 -185 1553 -569 104 -82 297 -269 399 -385 34 -38
20 -16 -37 60 -481 639 -1110 1024 -1791 1096 -334 35 -801 -35 -972 -146 -38
-25 -74 -56 -80 -69 -40 -87 68 -133 446 -191 303 -47 485 -92 685 -172 589
-233 1066 -714 1412 -1423 111 -228 254 -589 303 -765 11 -42 33 -81 71 -130
144 -183 194 -291 202 -430 5 -109 -7 -161 -49 -200 -24 -24 -39 -30 -73 -29
-60 1 -117 44 -219 162 -334 385 -873 783 -1337 985 -245 107 -452 165 -675
190 l-110 13 85 33 c197 77 464 112 693 92 72 -7 146 -14 162 -16 73 -11 -121
36 -215 52 -161 27 -468 25 -618 -5 -206 -41 -415 -127 -537 -220 -98 -75 -66
-98 241 -176 655 -166 1135 -394 1669 -795 205 -153 375 -304 295 -261 -42 22
-291 79 -420 95 -182 23 -501 17 -675 -14 -304 -54 -525 -135 -714 -262 -152
-101 -258 -242 -269 -358 -4 -45 -2 -50 24 -67 45 -30 140 -21 449 40 335 66
364 71 525 91 283 35 660 38 921 9 l56 -6 -29 -92 c-202 -638 -190 -1262 38
-1828 308 -767 971 -1431 1994 -1997 148 -83 510 -313 604 -386 18 -14 19 -20
7 -132 -17 -155 -62 -416 -106 -611 -20 -86 -38 -158 -39 -160 -4 -3 -267 94
-448 167 -166 66 -385 164 -540 242 -67 34 -116 54 -109 45 43 -52 398 -298
586 -406 111 -64 426 -220 444 -220 5 0 12 -4 16 -9 5 -9 -166 -712 -183 -753
-6 -14 -39 6 -203 120 -826 578 -1530 1152 -2041 1667 -178 178 -216 204 -303
205 -70 0 -112 -14 -186 -61 -71 -46 -220 -193 -319 -314 l-65 -80 66 57 c70
61 137 97 181 98 22 0 55 -27 165 -139 194 -194 564 -482 1083 -842 346 -240
463 -320 1050 -714 425 -285 490 -332 490 -355 0 -10 -9 -62 -20 -116 -28
-133 -97 -544 -104 -619 -5 -47 2 -26 33 90 74 280 142 471 234 650 88 172
220 280 402 331 91 25 299 30 410 9 449 -84 796 -449 913 -960 41 -181 45
-254 38 -745 -10 -638 8 -988 70 -1360 45 -275 126 -549 223 -755 l47 -100
-13 -120 c-47 -469 -74 -1135 -88 -2125 -3 -228 -8 -461 -11 -517 l-6 -102
-41 21 c-23 11 -85 46 -137 78 -56 33 -123 64 -162 74 -114 31 -228 110 -287
202 -15 23 -79 84 -142 135 -179 145 -536 513 -650 669 -13 18 -56 57 -96 86
-121 90 -204 216 -219 332 -4 34 -19 76 -36 106 -104 176 -229 458 -329 741
-36 105 -79 219 -94 254 -17 39 -30 95 -35 145 -5 45 -22 146 -39 226 -36 171
-75 424 -92 600 -9 104 -16 135 -42 189 -43 88 -50 208 -17 296 20 54 23 86
30 315 4 140 11 296 15 345 l7 90 -19 -25 c-11 -14 -41 -61 -67 -106 -182
-315 -323 -855 -400 -1544 -91 -803 -86 -1861 14 -2719 10 -91 17 -168 14
-173 -3 -4 -17 -8 -31 -8 -49 0 -500 -71 -763 -121 -479 -90 -879 -184 -1301
-306 -11 -3 -19 -20 -23 -48 -26 -197 -231 -310 -500 -277 -51 7 -132 23 -180
37 l-86 25 -118 -47 c-64 -25 -118 -47 -120 -48 -2 -2 22 -36 53 -76 137 -183
225 -445 212 -639 -13 -198 -103 -348 -259 -426 -312 -157 -596 -17 -788 389
-51 108 -128 320 -155 426 -9 34 -26 124 -39 200 l-23 136 -53 19 -52 19 -20
-24 c-31 -38 -84 -158 -101 -229 -19 -82 -33 -177 -52 -355 -52 -499 -100
-645 -236 -720 -48 -26 -63 -29 -134 -29 -93 2 -216 38 -305 90 -349 206 -464
702 -249 1067 47 79 47 82 -8 200 -34 73 -38 78 -62 72 -153 -39 -239 -44
-319 -16 l-52 18 21 -31 c74 -111 103 -224 104 -401 0 -121 -3 -150 -24 -212
-24 -75 -41 -87 -41 -29 0 54 -37 183 -72 249 -46 89 -164 202 -264 254 -65
34 -229 93 -257 93 -4 0 14 -28 39 -62 106 -145 182 -358 219 -619 8 -57 15
-108 15 -112 0 -12 -99 4 -178 29 -126 41 -276 126 -541 304 -218 147 -271
245 -205 378 137 275 735 433 1031 273 29 -16 53 -27 53 -25 0 2 -14 25 -30
51 -33 52 -70 143 -70 173 0 19 -7 20 -116 20 -189 0 -449 -46 -674 -120 -249
-81 -391 -181 -436 -307 -40 -113 17 -243 174 -399 147 -146 416 -328 648
-439 72 -34 134 -67 137 -72 3 -5 -33 -1 -81 9 -129 28 -370 20 -503 -15 -163
-43 -311 -116 -419 -208 l-25 -21 34 6 c247 43 562 23 926 -59 150 -34 185
-44 185 -55 0 -5 -17 -26 -38 -47 -59 -58 -157 -100 -321 -138 -163 -38 -257
-65 -411 -120 -483 -172 -590 -201 -745 -198 -341 5 -500 297 -323 591 40 65
149 174 219 218 98 62 62 52 -96 -27 -369 -185 -650 -478 -720 -749 -23 -87
-16 -214 15 -293 46 -122 168 -242 330 -326 253 -132 530 -114 858 54 153 78
281 164 587 395 300 226 398 293 505 344 71 34 169 61 192 54 7 -3 -19 -25
-57 -49 -154 -100 -365 -300 -518 -491 -339 -425 -507 -855 -453 -1158 45
-253 238 -440 535 -520 37 -10 42 -14 37 -33 -3 -12 -11 -66 -17 -119 -33
-269 64 -562 270 -822 76 -95 265 -273 378 -356 313 -229 760 -449 1228 -605
1043 -346 2326 -538 4094 -611 118 -5 158 -9 145 -17 -11 -5 -68 -37 -127 -70
l-108 -61 73 -33 c78 -37 151 -80 211 -126 l37 -29 0 50 c0 62 23 94 85 118
140 53 485 -58 485 -155 0 -35 -22 -47 -131 -71 -168 -38 -171 -56 -11 -63
168 -7 262 -42 399 -149 192 -151 275 -407 158 -484 -18 -12 -40 -15 -80 -12
-78 7 -130 45 -350 264 -181 179 -259 242 -325 259 -22 5 -20 2 13 -26 77 -65
157 -186 202 -309 23 -62 28 -92 29 -175 1 -85 -2 -106 -21 -141 -12 -23 -29
-49 -38 -57 -19 -19 -24 -18 148 -51 710 -140 1647 -149 2501 -25 76 11 140
18 142 16 2 -1 -19 -21 -47 -42 -69 -55 -125 -135 -140 -201 -62 -276 359
-570 1069 -748 214 -53 413 -88 702 -121 266 -30 800 -30 1090 0 544 56 1056
186 1496 378 l100 44 60 -56 c213 -199 534 -186 881 36 l57 36 81 -17 c239
-52 487 -70 745 -55 96 6 200 14 231 18 l57 7 28 -80 c37 -107 137 -303 199
-391 63 -90 183 -210 263 -264 253 -171 583 -181 892 -28 161 79 280 226 321
397 19 76 16 285 -5 385 -24 110 -79 271 -132 384 -24 52 -43 95 -42 96 2 1
44 27 93 58 50 31 105 67 124 81 19 14 38 26 42 26 3 0 63 -38 132 -83 265
-177 472 -247 686 -234 259 16 514 165 611 358 160 316 -97 773 -608 1083 -93
56 -206 116 -187 99 6 -5 36 -29 68 -53 178 -133 283 -331 263 -494 -10 -76
-58 -168 -110 -211 -79 -65 -148 -89 -266 -93 -169 -6 -284 29 -740 228 -143
63 -379 148 -490 177 -32 8 -36 6 -69 -30 -19 -21 -58 -50 -85 -65 -43 -22
-64 -27 -131 -27 -75 0 -85 3 -139 35 -84 50 -161 139 -301 350 -68 102 -135
198 -148 214 l-24 30 20 -105 c28 -147 30 -466 4 -554 -26 -85 -65 -152 -111
-191 l-39 -34 6 -117 c14 -255 103 -512 230 -659 48 -57 115 -119 122 -113 2
2 -3 31 -10 64 -47 204 -67 561 -46 780 6 65 14 121 17 124 9 9 99 -30 153
-67 316 -218 615 -751 638 -1137 11 -190 -36 -333 -143 -441 -98 -97 -220
-140 -379 -131 -219 11 -407 127 -541 332 -169 260 -255 540 -255 830 0 218
48 395 134 492 l20 23 -64 -6 c-86 -8 -168 16 -214 62 l-34 33 -24 -53 c-85
-185 -259 -336 -451 -391 -70 -20 -165 -16 -214 9 l-32 16 -89 -73 c-306 -255
-584 -380 -810 -364 -182 12 -301 112 -348 291 -17 64 -19 66 -50 66 -91 0
-234 54 -311 117 -55 45 -113 133 -142 216 -31 88 -39 300 -16 416 62 307 254
573 501 696 74 36 213 74 280 76 39 1 39 2 10 9 -51 13 -185 11 -280 -5 -166
-27 -290 -79 -440 -188 -202 -145 -411 -215 -606 -205 -242 14 -366 179 -344
458 24 296 159 499 433 651 165 92 211 104 387 103 175 -1 297 -20 411 -64 43
-16 79 -30 80 -30 0 0 -78 80 -175 178 -179 181 -220 235 -268 354 -22 52 -25
73 -21 137 3 45 12 90 23 111 24 48 159 177 214 204 72 37 176 58 276 58 201
-1 367 -73 540 -234 232 -217 368 -501 369 -775 1 -57 2 -103 2 -103 1 0 19
28 41 63 181 286 444 416 787 386 192 -17 355 -76 479 -174 107 -85 212 -251
242 -386 8 -35 23 -89 34 -119 23 -61 27 -167 10 -239 -5 -24 -7 -46 -4 -49 3
-3 20 8 38 25 17 17 57 48 88 71 l55 40 1 98 c2 126 24 227 75 333 44 93 97
156 170 203 l48 31 0 61 c0 155 121 267 254 237 95 -22 152 -89 164 -192 l7
-61 90 -23 c287 -72 512 -245 540 -411 17 -105 -55 -195 -241 -304 l-112 -65
-4 -48 c-9 -92 -73 -125 -258 -134 -63 -3 -148 -14 -189 -24 -41 -10 -99 -19
-129 -19 -53 0 -54 1 -48 25 l6 25 -137 0 c-127 -1 -243 -10 -318 -26 -24 -5
-9 -11 80 -29 329 -66 576 -201 667 -363 l31 -54 52 6 c300 35 616 26 784 -24
l35 -10 -35 36 c-109 114 -305 212 -524 261 -93 20 -341 24 -415 5 l-45 -11
25 19 c99 75 497 128 765 101 113 -12 292 -43 332 -58 47 -18 -93 123 -232
233 l-39 31 59 18 c33 9 87 29 121 45 l62 28 7 -53 c15 -122 128 -271 285
-374 153 -100 370 -187 577 -232 110 -23 390 -36 482 -22 l54 8 12 47 c6 25
19 58 29 73 38 58 150 81 252 50 l49 -14 38 37 c117 112 207 295 254 515 26
117 25 428 -1 547 -60 278 -171 490 -337 645 -170 158 -353 229 -629 244
l-125 6 -7 79 c-41 450 -292 868 -733 1222 -153 122 -188 144 -245 151 -27 3
-50 10 -50 15 0 6 46 56 103 112 146 147 227 181 490 207 205 20 481 -17 696
-93 342 -121 543 -338 510 -550 -14 -90 -27 -125 -62 -164 -55 -64 -98 -79
-217 -79 -93 1 -116 5 -199 34 -81 29 -102 33 -161 29 -81 -6 -155 -39 -174
-77 -19 -37 -29 -104 -30 -191 -1 -87 20 -140 85 -213 60 -69 116 -92 219 -91
69 1 101 7 171 33 301 111 598 445 659 741 72 348 -71 598 -461 804 -167 88
-363 140 -570 152 l-114 7 -76 -55 c-97 -70 -171 -102 -232 -103 -49 0 -75 17
-105 72 -9 15 -16 14 -88 -11 -114 -40 -292 -127 -390 -191 -46 -30 -88 -55
-93 -55 -5 0 -12 28 -15 62 -11 94 -59 271 -105 382 -211 516 -671 942 -1423
1317 l-168 84 0 45 c1 93 48 158 194 268 189 141 268 212 377 342 177 210 344
551 454 927 l39 132 61 -35 c293 -171 670 -288 1095 -340 201 -25 619 -25 820
-1 1035 127 1777 615 2066 1360 71 180 124 450 124 623 0 40 4 74 8 74 20 0
-62 431 -129 675 -81 296 -170 538 -307 830 -103 221 -142 360 -142 503 1 313
201 526 643 684 60 21 121 45 137 53 58 30 52 103 -17 176 -174 187 -516 205
-856 46 -97 -46 -236 -128 -299 -179 l-38 -29 -67 27 c-54 21 -90 28 -171 32
-186 9 -231 -31 -240 -210 -7 -148 35 -354 89 -430 20 -27 20 -33 8 -121 -17
-116 -15 -511 3 -699 8 -76 11 -138 8 -138 -3 0 -14 7 -24 15 -45 34 -160 11
-295 -60 -86 -45 -146 -96 -183 -154 -38 -60 -36 -102 7 -188 95 -191 391
-433 514 -421 l41 4 0 -72 c0 -143 -27 -338 -66 -472 l-15 -53 -47 39 c-116
97 -263 171 -394 198 -144 30 -209 -8 -290 -171 -93 -184 -152 -498 -128 -673
6 -42 12 -86 13 -97 2 -16 -8 -21 -63 -32 -91 -17 -312 -16 -407 2 -43 8 -116
27 -162 42 -79 26 -82 28 -57 38 71 29 145 140 195 291 76 232 79 468 8 575
-28 43 -126 93 -227 116 -104 23 -427 24 -560 0 -119 -20 -256 -60 -328 -94
l-55 -26 -18 24 c-41 54 -219 422 -219 452 0 2 21 7 46 10 88 10 169 61 299
192 265 264 406 587 326 744 -97 190 -508 408 -951 506 -93 20 -331 31 -382
17 l-36 -10 -65 82 c-36 44 -99 119 -141 165 l-76 83 29 34 c122 139 205 558
172 869 -46 427 -167 539 -581 539 -253 0 -493 -43 -785 -139 -352 -115 -573
-256 -622 -397 l-18 -48 -90 0 c-49 0 -135 -7 -190 -15 -102 -15 -292 -20
-333 -9 l-22 6 24 42 c72 124 137 377 157 612 24 286 -38 571 -145 661 -149
126 -555 160 -986 83 -57 -11 -105 -18 -107 -16 -7 7 28 179 47 228 11 29 34
71 52 92 34 41 204 170 518 394 161 115 301 215 649 467 214 154 823 614 960
724 84 67 158 124 165 126 6 3 45 -23 86 -56 163 -133 262 -183 307 -154 51
34 64 198 24 320 -12 39 -36 94 -52 124 -16 30 -29 57 -29 61 0 3 21 28 46 55
25 28 64 74 86 103 22 29 52 55 65 58 65 17 151 -22 241 -107 18 -17 35 -29
38 -26 9 8 -318 332 -369 366 l-47 32 -15 -34 c-24 -58 -54 -228 -57 -329 -2
-53 -6 -94 -9 -90 -3 4 -27 39 -54 77 -62 89 -243 275 -360 370 -130 106 -296
214 -444 289 -175 89 -310 142 -478 186 -31 8 -43 16 -43 30 0 22 8 24 190 45
325 37 691 46 971 25 261 -20 565 -70 799 -132 l85 -23 7 -65 c28 -248 83
-420 223 -701 241 -480 688 -1083 1117 -1506 111 -110 265 -243 280 -243 4 0
8 -5 8 -11 0 -23 -247 128 -426 261 -208 155 -483 411 -703 655 -198 220 -201
218 -20 -14 19 -25 51 -66 70 -91 417 -545 774 -901 1034 -1033 148 -75 326
-97 359 -45 27 43 -60 186 -282 463 -75 94 -141 175 -147 181 -5 6 -26 30 -45
54 -19 24 -60 73 -90 109 -84 101 -83 100 -167 201 -540 649 -814 1066 -894
1357 -29 104 -24 241 10 296 19 31 28 37 56 37 35 0 47 15 39 47 -4 16 6 25
53 45 85 38 162 51 303 50 421 -2 942 -157 2250 -669 715 -280 987 -369 1161
-380 106 -7 145 9 154 61 21 112 -159 282 -540 508 -235 140 -368 208 -1515
777 -835 414 -1076 546 -1365 750 -130 91 -277 230 -315 298 l-23 42 -46 -32
c-25 -18 -50 -35 -55 -39 -18 -12 61 -113 173 -220 339 -328 935 -672 2131
-1233 428 -201 752 -361 860 -425 258 -154 192 -227 -123 -135 -135 39 -428
146 -942 343 -1033 397 -1511 550 -1930 618 -127 21 -342 24 -413 5 l-54 -13
55 -57 c74 -76 107 -127 107 -167 0 -28 -5 -35 -25 -40 -43 -11 -86 4 -235 79
-354 178 -850 290 -1210 273 -202 -9 -260 14 -260 104 0 85 102 204 223 261
125 58 330 62 528 9 119 -31 127 -33 89 -15 -57 27 -236 74 -377 100 -313 58
-695 50 -1001 -20 -35 -8 -67 -15 -71 -15 -4 0 -13 30 -20 66 -10 56 -10 68 2
78 580 467 1150 743 1712 831 55 9 181 18 280 22 394 13 676 -46 1236 -260 80
-31 185 -64 233 -74 78 -16 89 -16 114 -3 39 23 40 60 1 136 -20 41 -58 90
-108 139 l-76 75 105 0 c463 0 1197 -86 2365 -276 801 -130 954 -154 1145
-179 223 -29 439 -42 490 -28 94 25 14 100 -205 193 -128 55 -456 164 -703
234 -219 63 -752 199 -758 193 -2 -1 36 -16 84 -31 247 -79 564 -197 547 -203
-6 -2 -266 40 -579 92 -806 135 -1245 196 -1736 242 -202 18 -867 25 -993 10
l-68 -9 58 -37 c66 -43 158 -137 173 -176 13 -33 -2 -63 -34 -71 -37 -9 -130
19 -277 84 -157 69 -289 114 -414 141 -464 101 -1016 7 -1670 -285 -126 -56
-133 -58 -220 -58 -76 -1 -95 2 -125 21 -52 32 -74 76 -73 148 2 121 72 248
196 353 21 17 37 32 34 32 -10 0 -224 -89 -309 -128 -48 -23 -133 -66 -189
-97 -56 -31 -103 -55 -104 -53 -2 2 1 28 6 58 17 103 58 494 69 648 13 197 13
669 0 843 -30 381 -94 722 -195 1038 -282 875 -863 1562 -1720 2034 -66 37
-126 70 -133 74 -11 7 -10 21 4 78 23 92 23 313 0 450 -34 208 -102 388 -170
454 -49 48 -114 53 -215 18 -260 -91 -552 -382 -568 -568 -4 -43 -9 -59 -19
-55 -7 3 -73 19 -146 36 -73 18 -138 33 -143 35 -6 1 -28 49 -49 106 -166 449
-476 860 -647 859 -19 -1 -57 -9 -86 -19z m672 -1111 c139 -16 323 -48 447
-79 102 -25 121 -33 193 -85 190 -138 502 -254 607 -225 36 9 45 7 151 -47
1040 -527 1679 -1488 1846 -2774 34 -259 43 -422 43 -725 0 -545 -60 -1050
-188 -1597 l-37 -157 -80 75 c-170 160 -434 243 -683 214 -313 -35 -621 -204
-919 -504 -310 -312 -538 -705 -612 -1056 -24 -115 -24 -312 1 -395 23 -80 85
-194 152 -281 61 -81 187 -204 255 -251 104 -72 259 -136 394 -164 89 -18 294
-16 398 4 226 45 471 167 648 324 110 98 103 95 79 28 -84 -230 -231 -448
-399 -592 -168 -144 -355 -247 -581 -320 -67 -22 -342 -84 -347 -79 -2 1 2 18
7 37 29 99 -3 206 -74 245 -82 46 -206 39 -317 -16 -67 -34 -134 -86 -261
-203 l-97 -89 -81 7 -80 7 -63 -58 c-111 -104 -259 -186 -413 -229 -32 -9 -68
-20 -79 -25 -85 -38 -661 -64 -639 -29 3 5 -10 9 -30 9 -114 0 -481 82 -727
163 -647 213 -1132 526 -1367 881 -83 126 -127 226 -155 356 l-21 96 -139 78
c-159 90 -146 73 -227 301 l-42 120 6 185 c13 343 -25 487 -141 536 -70 30
-326 8 -455 -39 -99 -36 -156 -73 -188 -124 -37 -57 -44 -105 -27 -170 8 -29
11 -53 7 -53 -15 0 -320 321 -402 423 -206 258 -363 545 -445 812 -145 477
-96 981 143 1470 49 99 59 113 106 145 69 46 159 131 215 203 78 101 123 203
157 357 8 39 292 486 514 810 531 774 1061 1363 1582 1759 582 442 1173 681
1810 731 123 10 427 4 555 -10z m-6026 -3356 c202 -29 391 -86 578 -174 81
-38 103 -53 108 -73 33 -128 -230 -156 -1161 -123 -258 9 -566 18 -684 19
l-215 2 88 58 c94 63 258 147 372 192 88 35 310 91 406 103 123 16 391 14 508
-4z m8368 -2295 c317 -44 563 -231 661 -502 47 -129 63 -232 63 -397 0 -433
-174 -829 -503 -1145 -401 -386 -909 -469 -1297 -211 -75 50 -291 243 -328
294 -31 42 -80 141 -88 177 -4 18 5 7 23 -30 82 -167 248 -265 450 -265 107 0
183 18 282 68 l75 37 7 66 c7 79 37 153 68 169 14 8 42 10 74 6 28 -3 62 -7
75 -8 20 -3 33 10 73 67 98 142 182 350 208 517 20 123 9 324 -23 423 -60 185
-178 321 -357 414 -111 57 -172 75 -234 67 -54 -8 -53 -6 4 36 114 83 280 163
360 173 23 3 66 12 94 20 111 32 203 39 313 24z m-1102 -845 c20 -8 45 -56 45
-86 0 -97 -169 -170 -237 -102 -29 29 -27 64 7 119 34 55 129 90 185 69z
m2650 -740 c161 -41 365 -205 560 -446 120 -150 164 -227 172 -302 5 -46 3
-56 -17 -76 -17 -17 -29 -21 -52 -16 -59 12 -101 41 -208 141 -113 107 -209
179 -406 305 -152 97 -249 189 -258 246 -12 69 27 135 90 154 42 12 53 12 119
-6z m-775 -140 c219 -102 531 -280 684 -390 l48 -36 -33 -35 c-57 -59 -365
-343 -514 -473 -491 -430 -1138 -940 -1602 -1264 -101 -70 -182 -151 -259
-258 -138 -190 -182 -244 -229 -278 -47 -34 -53 -35 -135 -35 -79 0 -92 3
-163 38 -152 75 -340 243 -416 370 -130 221 -131 461 -1 619 l29 36 283 5
c295 5 432 20 633 67 304 71 587 197 800 354 44 33 124 103 178 155 267 259
427 575 482 952 8 59 15 119 15 134 0 15 10 45 22 66 26 46 17 48 178 -27z
m-2886 -1675 c71 -11 74 -12 80 -41 11 -58 6 -90 -28 -161 -51 -107 -69 -186
-69 -307 -1 -302 180 -625 463 -826 65 -46 95 -76 139 -140 128 -185 332 -405
501 -540 445 -356 1046 -564 1635 -565 212 -1 490 -18 640 -40 952 -137 1721
-654 2106 -1414 185 -367 275 -733 286 -1175 l6 -215 -41 46 c-104 117 -308
169 -548 139 -126 -15 -168 -36 -210 -108 -42 -69 -58 -159 -51 -281 15 -283
192 -515 435 -571 102 -24 208 9 298 92 38 35 44 38 44 20 0 -40 -70 -296
-106 -386 -105 -263 -262 -505 -381 -587 -78 -55 -117 -92 -169 -166 -123
-170 -552 -397 -933 -493 -557 -140 -1168 -97 -1667 116 -196 83 -347 188
-511 355 -185 189 -319 379 -453 644 -139 275 -223 527 -277 833 -25 145 -27
178 -28 422 0 234 3 280 24 395 130 728 568 1282 1308 1655 l98 49 -50 1
c-135 4 -216 -8 -351 -51 -279 -89 -622 -331 -940 -662 l-124 -130 -39 11
c-98 30 -153 100 -300 385 -160 310 -246 440 -380 574 -100 101 -264 218 -353
252 l-24 9 32 -81 c143 -359 244 -947 293 -1712 33 -511 43 -1526 21 -2175
-11 -346 -36 -888 -46 -1017 -6 -78 -8 -83 -29 -83 -39 0 -118 -61 -160 -125
-23 -33 -52 -94 -65 -135 -22 -65 -25 -94 -25 -210 0 -103 4 -148 18 -190 25
-76 85 -159 143 -198 l50 -33 -13 -137 c-16 -179 -41 -386 -49 -406 -4 -9 -18
-16 -35 -16 -137 0 -296 -93 -380 -222 -71 -111 -76 -220 -13 -324 33 -55 34
-59 17 -72 -41 -32 -178 -92 -257 -112 l-84 -22 14 -34 c20 -47 17 -131 -5
-180 -31 -69 -130 -178 -216 -239 -227 -161 -394 -146 -465 42 -35 90 -40 272
-11 377 17 63 19 81 9 87 -21 14 -25 11 -32 -27 -9 -44 -64 -99 -137 -136
-154 -78 -379 -145 -520 -155 -211 -14 -263 31 -261 227 0 47 8 108 16 135 9
28 16 53 16 57 0 4 -25 -2 -57 -13 -163 -56 -378 -73 -450 -35 -83 42 -103
218 -44 389 15 42 17 59 8 61 -131 35 -217 75 -307 141 -63 46 -137 129 -163
181 -19 41 -21 42 -81 48 -34 4 -75 9 -91 12 -29 5 -31 3 -42 -39 -35 -130
-224 -278 -357 -279 -65 -1 -99 17 -159 81 -58 62 -102 152 -123 251 -28 133
10 222 116 272 l49 24 -35 59 c-196 325 -365 865 -473 1510 -177 1063 -156
2095 50 2416 35 56 60 67 95 45 80 -53 182 -257 456 -911 71 -170 179 -424
240 -562 l111 -253 -36 -52 c-58 -85 -71 -129 -71 -253 -1 -98 2 -116 25 -165
60 -129 143 -181 301 -189 l99 -6 135 -265 c75 -146 144 -279 154 -297 16 -27
18 -46 14 -125 -5 -84 -3 -97 18 -133 25 -43 88 -85 128 -85 22 0 37 -20 112
-148 107 -182 123 -228 123 -350 0 -78 2 -91 15 -86 108 44 127 48 250 48 109
1 131 -2 174 -21 26 -13 64 -40 83 -60 l35 -38 35 40 c80 91 155 289 197 517
59 322 83 692 106 1643 19 781 41 1243 81 1715 75 899 201 1552 373 1944 l17
38 -31 -22 c-91 -65 -221 -210 -302 -336 -118 -185 -232 -501 -273 -759 -23
-146 -25 -153 -35 -135 -13 23 -78 336 -100 480 -114 744 -80 1506 100 2220
122 485 339 961 604 1325 l69 94 226 -6 c242 -6 424 5 591 36 52 10 98 19 102
20 4 0 41 -4 82 -10z m9899 -2685 l77 -7 0 -31 c0 -48 -47 -95 -188 -190 -217
-145 -298 -225 -371 -366 -50 -97 -70 -171 -78 -295 -11 -189 26 -366 142
-674 140 -374 209 -649 256 -1026 20 -155 17 -574 -4 -720 -103 -701 -440
-1179 -1029 -1455 -197 -92 -385 -138 -603 -147 l-149 -6 36 32 c53 46 82 112
82 185 1 139 -95 198 -248 152 -94 -28 -146 -89 -146 -170 0 -57 11 -85 50
-129 l31 -36 -72 20 c-223 62 -458 200 -644 378 l-60 58 -1 119 c0 107 -3 128
-30 205 -58 164 -156 306 -253 369 -36 22 -73 36 -121 43 l-68 11 -27 85 c-34
106 -65 253 -65 310 l0 44 63 -65 c345 -354 729 -583 1081 -644 122 -22 348
-14 460 15 166 44 313 117 464 231 101 75 295 277 356 368 115 174 185 382
207 618 20 223 2 432 -81 954 -70 435 -82 554 -78 776 3 175 4 188 23 198 11
6 54 45 96 87 185 185 307 451 241 522 l-21 23 57 35 c161 100 377 143 615
123z m-9002 -3330 l117 -17 7 -96 c75 -1053 571 -1869 1313 -2156 40 -16 69
-31 65 -35 -4 -4 -46 -15 -93 -25 -133 -28 -351 -91 -460 -134 -89 -36 -106
-39 -167 -35 -37 2 -151 9 -253 15 -163 9 -375 26 -567 45 l-63 7 6 171 c7
182 -7 942 -31 1689 -18 566 -18 587 -2 587 6 0 64 -7 128 -16z m2038 -2509
c512 -62 983 -246 1212 -474 112 -112 149 -216 114 -322 -45 -136 -277 -284
-553 -351 l-90 -22 21 -41 c14 -27 21 -59 21 -100 1 -53 -4 -68 -39 -125 -76
-125 -234 -253 -371 -301 -44 -15 -77 -19 -131 -17 -62 3 -76 7 -110 34 -78
63 -121 210 -109 369 3 44 8 92 12 106 l6 26 -114 10 -113 9 -45 -37 c-73 -60
-148 -103 -280 -162 -247 -108 -429 -141 -508 -90 -13 8 -36 40 -50 71 -25 53
-27 66 -25 177 0 75 7 138 16 168 8 26 14 47 14 47 -1 0 -26 -9 -54 -20 -96
-36 -300 -73 -408 -74 -180 -1 -210 33 -209 229 0 105 3 128 27 187 37 97 103
203 158 257 28 27 54 65 62 90 68 197 350 327 807 371 138 13 581 4 739 -15z
m-13163 -1422 c10 -55 -3 -382 -20 -511 -17 -122 -58 -318 -82 -384 -8 -23
-13 -42 -12 -44 2 -1 28 17 58 40 191 146 334 458 357 777 l6 91 28 -29 29
-28 -25 -76 c-37 -117 -63 -280 -69 -429 -3 -74 -10 -169 -15 -210 -13 -100
-13 -240 0 -376 l11 -113 -61 -88 c-98 -144 -176 -216 -298 -277 -94 -47 -177
-66 -288 -66 -108 1 -159 11 -245 52 -113 54 -200 164 -235 294 -19 71 -22
228 -5 310 43 220 192 520 357 724 144 177 298 306 432 360 64 26 69 25 77
-17z m895 -261 c34 -17 67 -45 88 -74 l34 -46 41 19 c66 30 140 20 195 -27
174 -146 355 -1363 260 -1752 -17 -66 -45 -119 -75 -138 -54 -36 -134 18 -232
156 -25 36 -78 99 -117 141 -140 152 -228 348 -272 609 -22 129 -21 395 0 518
10 50 17 95 17 100 0 4 -35 7 -78 7 -111 1 -211 34 -270 89 -42 40 -46 47 -50
103 -4 51 0 69 23 114 85 170 292 256 436 181z m15345 -209 c99 -34 196 -166
245 -335 26 -91 37 -313 20 -412 -10 -55 -20 -77 -54 -119 -23 -29 -51 -65
-63 -81 -18 -25 -25 -28 -55 -22 -93 17 -295 186 -386 321 -163 243 -194 450
-84 568 74 81 260 120 377 80z m-15946 -928 c7 -33 27 -102 45 -152 l33 -93
-159 0 -159 0 47 58 c53 65 123 171 149 225 10 21 21 34 24 30 4 -5 13 -35 20
-68z m2347 -331 c73 -47 23 -221 -124 -433 -220 -318 -586 -678 -735 -723 -38
-11 -42 -10 -61 13 -17 21 -19 34 -14 124 7 130 42 249 113 390 114 224 208
349 369 493 78 71 204 138 280 152 62 11 143 3 172 -16z m14728 -370 c76 -19
137 -55 167 -97 19 -27 23 -45 23 -107 0 -63 -5 -85 -31 -140 -51 -105 -150
-235 -290 -378 l-132 -134 -43 24 c-69 37 -161 135 -198 209 -59 120 -54 289
12 413 97 182 288 264 492 210z m-16505 -400 c219 -44 482 -166 598 -278 53
-50 86 -110 78 -141 -14 -54 -132 -58 -306 -8 -61 17 -114 26 -149 25 -179 -8
-515 108 -606 209 -40 45 -46 89 -16 115 10 9 16 24 14 34 -7 26 22 48 75 55
26 4 52 8 57 11 18 7 178 -7 255 -22z m9107 -212 c239 -92 331 -366 247 -732
-22 -97 -72 -244 -116 -339 -21 -46 -37 -86 -34 -88 2 -2 26 7 53 20 26 13
100 43 163 67 63 23 124 46 135 51 35 15 225 58 309 70 87 11 142 7 221 -18
84 -27 141 -60 182 -107 101 -115 79 -301 -56 -470 -160 -199 -484 -336 -798
-336 -35 0 -63 -3 -63 -6 0 -3 15 -25 34 -48 42 -50 56 -85 56 -136 0 -78 -95
-143 -257 -177 -115 -24 -449 -24 -608 1 -279 42 -490 120 -573 210 -37 41
-42 51 -42 94 0 63 35 117 116 177 55 41 185 111 278 149 22 9 37 18 35 20 -2
1 -60 0 -129 -5 -208 -13 -418 9 -554 58 -141 50 -254 142 -299 242 -38 87
-31 224 20 368 24 70 121 144 232 179 69 22 218 29 282 14 153 -37 294 -140
419 -308 29 -40 54 -71 56 -69 2 2 -9 34 -25 73 -82 202 -98 422 -49 674 21
108 96 215 196 279 59 38 183 87 264 106 87 20 237 14 305 -13z m8307 -252
c15 -5 53 -10 84 -10 174 0 347 -191 312 -344 -8 -36 -6 -59 12 -123 31 -113
31 -353 0 -468 -67 -248 -226 -418 -446 -477 -107 -28 -282 -35 -386 -14 -191
39 -341 150 -381 284 -17 58 0 113 47 148 55 43 60 60 26 93 l-28 29 41 43
c208 220 353 489 409 759 8 39 16 74 18 76 23 22 236 26 292 4z m-3644 -45
c56 -29 75 -104 44 -171 -21 -44 -50 -64 -92 -64 -77 0 -119 52 -109 136 9 88
86 136 157 99z m-12372 -65 c126 -21 213 -64 233 -116 21 -56 -56 -148 -151
-179 -183 -61 -467 73 -473 223 0 23 3 46 9 52 26 26 266 39 382 20z m3276
-381 c56 -16 121 -80 146 -145 74 -198 -65 -394 -263 -371 -127 16 -207 118
-207 266 0 115 57 202 156 241 56 22 111 25 168 9z m768 -728 c29 -26 33 -35
33 -81 0 -46 -4 -55 -33 -81 -58 -52 -137 -30 -162 46 -16 48 2 100 44 126 44
27 80 24 118 -10z"/>
<path d="M27402 27465 c-90 -28 -159 -98 -180 -181 -53 -207 21 -686 147 -950
78 -164 145 -208 226 -153 195 134 403 894 309 1128 -28 70 -108 125 -229 157
-64 17 -217 17 -273 -1z"/>
<path d="M27231 25848 c-28 -14 -54 -37 -73 -67 -129 -204 -170 -863 -61 -983
26 -29 98 -24 160 12 148 85 335 355 388 560 24 92 18 229 -13 292 -80 162
-271 251 -401 186z"/>
<path d="M22900 24790 c-229 -48 -448 -164 -622 -328 -240 -225 -343 -469
-355 -837 -7 -233 22 -433 98 -658 26 -77 80 -209 84 -205 2 2 -12 49 -31 105
-112 335 -122 681 -28 962 52 158 86 213 194 322 385 386 961 472 1408 210
350 -205 528 -466 609 -894 25 -130 24 -509 0 -652 -37 -210 -93 -394 -172
-561 -134 -285 -326 -472 -515 -503 l-55 -9 46 -1 c217 -5 421 148 582 440
247 447 326 1174 182 1674 -68 236 -187 447 -327 582 -179 172 -460 319 -686
358 -116 20 -305 18 -412 -5z"/>
<path d="M23178 23880 c-329 -39 -554 -257 -634 -615 -12 -53 -18 -124 -18
-209 l-1 -129 85 -17 c181 -38 320 -118 320 -184 0 -38 -56 -113 -112 -150
-30 -21 -84 -43 -125 -54 l-71 -18 34 -68 c52 -102 105 -175 177 -242 118
-111 221 -154 368 -154 354 0 655 324 735 790 12 72 15 135 11 260 -6 201 -26
290 -98 438 -94 193 -245 313 -436 347 -85 16 -133 16 -235 5z m543 -907 c32
-19 69 -85 69 -124 0 -35 -36 -88 -67 -100 -50 -19 -145 16 -168 62 -29 55
-16 125 29 161 28 23 99 23 137 1z"/>
<path d="M23618 20771 c-30 -27 -33 -34 -33 -88 0 -140 147 -304 260 -291 23
2 31 10 38 37 21 84 -42 282 -110 341 -47 42 -109 42 -155 1z"/>
<path d="M26478 19826 c-93 -33 -223 -137 -248 -197 -11 -25 -10 -32 5 -49 47
-52 184 -53 290 -1 108 53 153 129 121 204 -23 56 -87 72 -168 43z"/>
<path d="M30898 15466 c-91 -33 -186 -127 -195 -194 -10 -73 4 -110 61 -167
43 -43 66 -57 121 -74 121 -38 186 -22 232 57 21 35 27 62 31 121 5 85 -7 142
-41 192 -49 73 -122 96 -209 65z"/>
<path d="M30705 12536 c-80 -16 -171 -47 -214 -72 -17 -10 -42 -40 -58 -68
-25 -45 -28 -61 -28 -141 1 -127 35 -224 109 -303 41 -44 76 -62 125 -62 58 0
85 14 147 72 65 62 131 158 170 248 37 87 44 209 16 259 -37 67 -137 92 -267
67z"/>
<path d="M26328 11945 c-14 -8 -38 -38 -52 -67 -50 -101 -28 -246 44 -283 37
-19 58 -19 117 1 96 32 153 96 153 172 0 53 -18 90 -66 132 -67 58 -140 75
-196 45z"/>
<path d="M25842 5004 c-71 -35 -174 -130 -170 -158 8 -53 230 -122 368 -114
64 3 75 7 96 31 13 16 24 40 24 55 -1 62 -69 165 -132 198 -43 22 -125 17
-186 -12z"/>
<path d="M17680 22339 c-536 -39 -1133 -135 -2210 -353 -402 -81 -386 -78
-375 -67 15 15 208 95 415 172 102 37 181 68 176 69 -16 0 -520 -146 -701
-203 -361 -115 -668 -233 -801 -308 -61 -35 -124 -90 -124 -108 0 -25 55 -33
175 -27 178 8 444 53 1175 197 766 151 1230 234 1635 293 1025 149 1595 121
1746 -87 55 -76 34 -177 -59 -286 -198 -234 -632 -512 -1587 -1016 -154 -81
-311 -165 -350 -185 -38 -20 -119 -63 -180 -95 -687 -364 -1046 -588 -1227
-766 -114 -111 -145 -193 -92 -246 25 -25 29 -25 112 -20 179 11 376 84 1407
522 567 240 933 379 1241 470 422 125 708 151 892 83 83 -30 155 -104 177
-183 36 -123 -5 -295 -129 -538 -152 -299 -334 -557 -934 -1327 -324 -414
-426 -570 -426 -649 l-1 -46 68 -3 c86 -4 156 16 264 73 276 146 555 447 1048
1130 144 201 132 183 113 165 -9 -8 -57 -64 -108 -125 -107 -127 -337 -380
-407 -445 -213 -200 -447 -383 -615 -481 -81 -47 -96 -50 -43 -7 79 64 270
256 384 388 461 532 834 1128 990 1584 62 181 76 254 76 406 -1 118 -4 143
-24 193 -13 32 -36 73 -52 92 -64 73 -209 105 -391 86 -383 -40 -908 -215
-1883 -626 -810 -342 -1016 -421 -1162 -446 -121 -21 -147 19 -62 95 92 83
240 164 1033 571 1051 537 1565 860 1881 1179 163 164 238 301 239 436 1 66
-3 84 -32 143 -72 145 -245 237 -534 282 -124 20 -551 28 -738 14z"/>
<path d="M32180 5380 c-98 -25 -242 -98 -307 -155 -46 -41 -132 -155 -149
-198 -4 -13 12 -8 68 18 78 36 235 85 272 85 48 0 66 13 97 69 28 49 93 147
109 161 3 3 11 13 19 23 12 15 11 17 -10 16 -13 0 -58 -9 -99 -19z"/>
<path d="M30045 4785 l-50 -13 62 -1 c73 -1 284 -42 366 -70 32 -11 94 -39
138 -63 l78 -42 53 27 c29 15 78 35 108 46 32 11 49 21 40 24 -8 3 -97 24
-196 46 -169 38 -184 40 -210 26 -46 -24 -133 -19 -188 10 -53 28 -118 32
-201 10z"/>
<path d="M29610 4473 c0 -105 -19 -340 -35 -438 -8 -49 -13 -90 -12 -92 2 -1
32 8 67 21 36 13 115 36 175 51 61 16 114 32 119 36 12 10 -40 181 -84 276
-43 93 -103 163 -164 193 -64 30 -66 29 -66 -47z"/>
<path d="M31137 4471 c-49 -25 -131 -89 -184 -143 l-42 -43 23 -65 24 -64 32
64 c44 87 99 166 154 223 50 52 49 56 -7 28z"/>
<path d="M21075 4119 c-49 -5 -95 -11 -101 -13 -26 -10 -48 -196 -24 -211 6
-3 22 2 38 13 78 56 288 141 445 182 56 15 83 26 75 31 -17 11 -314 9 -433 -2z"/>
<path d="M21489 3872 c-52 -53 -134 -141 -182 -194 l-88 -97 39 -25 c82 -52
307 -154 317 -145 2 3 -1 25 -7 49 -22 92 -5 384 28 493 11 34 -14 16 -107
-81z"/>
<path d="M29873 3915 c-34 -25 -85 -71 -115 -103 -67 -74 -189 -254 -161 -240
139 69 218 102 294 124 52 15 95 29 97 30 6 4 -39 218 -47 227 -4 4 -35 -13
-68 -38z"/>
</g>
</svg>
