<?xml version="1.0" standalone="no"?>
<!DOCTYPE svg PUBLIC "-//W3C//DTD SVG 20010904//EN"
 "http://www.w3.org/TR/2001/REC-SVG-20010904/DTD/svg10.dtd">
<svg version="1.0" xmlns="http://www.w3.org/2000/svg"
 width="5000.000000pt" height="3000.000000pt" viewBox="0 0 5000.000000 3000.000000"
 preserveAspectRatio="xMidYMid meet">
<metadata>
Created by potrace 1.16, written by Peter Selinger 2001-2019
</metadata>
<g transform="translate(0.000000,3000.000000) scale(0.100000,-0.100000)"
fill="#000000" stroke="none">
<path d="M24783 28440 c-131 -27 -245 -144 -357 -367 -59 -118 -81 -176 -111
-292 -34 -126 -32 -154 11 -226 119 -197 249 -520 291 -725 56 -272 -106 -481
-438 -564 -294 -74 -612 -17 -707 127 l-27 40 -1 296 c-1 163 -5 318 -10 346
l-9 50 -62 16 c-33 9 -81 20 -105 24 l-43 7 62 -32 c110 -55 129 -104 65 -162
-57 -52 -150 -72 -322 -71 -255 1 -544 70 -642 153 -58 48 -50 81 27 124 l30
17 -35 -6 c-167 -29 -288 -82 -349 -151 -55 -63 -88 -168 -103 -330 -19 -200
12 -478 76 -678 l23 -73 -75 -84 c-114 -126 -259 -302 -352 -427 -49 -67 -91
-114 -104 -117 -12 -2 -52 -9 -91 -15 -415 -65 -846 -239 -1016 -409 -92 -93
-104 -123 -103 -246 1 -79 7 -118 29 -185 58 -182 195 -423 335 -589 l62 -73
-66 -187 c-124 -352 -231 -730 -316 -1111 -48 -217 -112 -570 -126 -696 -3
-34 -9 -67 -13 -73 -5 -8 -39 3 -111 35 -223 98 -503 177 -743 209 -137 17
-441 20 -567 5 -379 -47 -751 -199 -1064 -435 -82 -61 -149 -145 -168 -208
-11 -38 -11 -41 16 -63 46 -40 143 -34 460 31 408 84 612 104 846 85 542 -43
1015 -248 1520 -658 142 -115 511 -486 648 -652 61 -74 110 -136 107 -138 -2
-2 -14 3 -27 11 -42 27 -233 105 -346 140 -131 42 -270 72 -407 88 -114 13
-508 7 -645 -11 -325 -41 -611 -142 -845 -298 -170 -113 -415 -379 -403 -439
2 -10 14 -23 28 -31 28 -14 66 -12 305 18 583 74 1106 43 1680 -99 177 -45
520 -149 513 -156 -2 -2 -53 -9 -113 -15 -421 -43 -874 -234 -1221 -516 -294
-238 -455 -535 -402 -739 l13 -50 51 -3 c64 -4 131 30 359 178 235 153 402
252 568 336 178 90 381 178 384 167 13 -38 196 -349 278 -473 593 -895 1511
-1559 2734 -1980 l195 -67 -60 -7 c-113 -13 -350 -66 -451 -100 -335 -113
-434 -244 -420 -556 15 -333 171 -723 376 -943 l63 -67 -29 -33 c-15 -19 -140
-157 -278 -307 -137 -150 -285 -312 -328 -361 l-79 -88 -25 30 c-33 39 -86 65
-181 91 -99 26 -384 36 -557 19 -306 -30 -637 -107 -845 -198 -44 -20 -47 -20
-245 -2 -255 24 -516 59 -773 105 -170 30 -218 42 -289 75 l-84 39 63 82 c94
124 263 291 325 322 95 47 108 42 242 -89 115 -114 344 -305 366 -305 6 0 50
16 97 35 435 175 1170 267 1626 204 41 -6 75 -9 77 -7 2 2 -45 44 -103 93
-258 218 -597 572 -839 875 -382 479 -636 907 -891 1505 -250 588 -358 797
-494 960 -79 94 -126 135 -371 317 -57 43 -129 72 -237 96 -105 24 -462 23
-655 0 -77 -10 -210 -22 -295 -28 -849 -59 -2037 -303 -3153 -649 -122 -38
-339 -103 -482 -144 -901 -260 -1613 -518 -1888 -684 -88 -53 -127 -93 -127
-128 0 -93 380 -42 1560 211 625 135 1001 214 1009 214 12 -1 -271 -113 -414
-165 -223 -80 -358 -133 -590 -233 -237 -102 -513 -228 -535 -246 -8 -7 -116
-63 -239 -125 -510 -256 -1034 -556 -1511 -865 -102 -65 -293 -187 -425 -269
-1023 -637 -1623 -1072 -1792 -1301 -98 -132 -31 -155 199 -68 244 93 562 251
1483 736 1217 642 1964 1000 2525 1209 618 230 1026 285 1207 164 153 -103
119 -303 -107 -636 -238 -351 -580 -721 -1601 -1731 -886 -876 -1113 -1117
-1315 -1396 -182 -250 -228 -343 -229 -461 0 -63 3 -75 25 -98 23 -24 30 -27
85 -23 171 11 496 243 1396 994 1113 929 1651 1309 2104 1487 154 60 252 80
374 75 123 -4 192 -29 255 -93 89 -88 122 -218 113 -445 -14 -394 -157 -877
-582 -1970 -87 -223 -166 -430 -176 -460 -9 -30 -45 -134 -79 -230 -78 -223
-110 -346 -110 -425 0 -102 29 -113 160 -61 285 112 565 518 843 1221 95 240
163 428 342 950 142 412 218 613 296 773 107 224 184 318 266 329 33 4 49 -3
118 -47 339 -218 1218 -537 2920 -1060 633 -194 854 -263 865 -270 7 -4 -8
-38 -43 -96 -52 -85 -259 -451 -308 -544 -22 -41 -28 -46 -74 -53 -285 -46
-585 -161 -880 -338 -154 -92 -300 -219 -351 -306 -77 -129 -34 -338 116 -568
99 -151 223 -282 356 -378 30 -21 54 -40 54 -42 0 -3 -35 -46 -77 -97 -98
-118 -328 -348 -663 -663 -146 -137 -322 -305 -392 -373 l-126 -124 -49 15
c-98 32 -153 38 -354 44 -311 9 -584 -22 -773 -86 -156 -53 -188 -97 -187
-255 0 -285 188 -665 385 -781 l45 -26 -106 -167 c-213 -337 -355 -613 -469
-911 l-43 -114 23 -31 c68 -89 106 -348 106 -711 0 -488 -76 -845 -205 -964
-43 -40 -54 -45 -118 -56 l-38 -6 5 -42 c3 -23 13 -105 21 -182 29 -256 90
-520 170 -740 20 -55 39 -107 42 -117 4 -14 11 -13 59 9 81 37 157 41 219 12
69 -31 216 -181 294 -299 157 -236 271 -527 271 -690 0 -80 -9 -109 -44 -142
l-26 -24 82 -75 c176 -159 367 -308 558 -436 166 -110 425 -263 446 -263 5 0
21 33 36 73 33 89 103 194 148 225 69 47 161 23 318 -81 176 -118 374 -312
474 -464 44 -66 50 -116 19 -155 l-20 -25 162 -51 c341 -107 609 -175 957
-242 118 -22 223 -43 234 -45 15 -3 17 1 12 23 -15 59 -18 225 -7 277 14 63
40 90 104 106 132 33 472 -35 685 -137 84 -41 107 -68 98 -119 -9 -44 -96
-140 -176 -194 l-59 -39 52 -6 c280 -32 841 -50 1197 -36 344 12 485 21 500
30 7 4 2 25 -15 62 -14 31 -28 78 -32 105 -5 43 -2 53 21 80 56 66 226 112
451 120 168 6 201 -1 211 -43 9 -37 -18 -119 -64 -190 -21 -32 -41 -64 -45
-70 -15 -25 490 68 822 151 530 133 1001 314 1386 533 114 64 377 240 460 306
324 261 422 396 413 571 -3 62 -8 80 -33 117 -62 88 -171 128 -346 128 -122 0
-284 -26 -440 -69 -239 -67 -729 -111 -1258 -111 l-225 0 26 -28 c37 -38 50
-77 50 -147 -1 -203 -197 -368 -357 -301 -39 17 -75 68 -75 107 l0 25 -72 -23
c-100 -33 -241 -68 -377 -93 -102 -20 -120 -26 -163 -61 -100 -79 -274 -94
-343 -29 -20 19 -27 19 -245 9 -124 -6 -296 -8 -382 -5 -155 6 -158 6 -208
-19 -158 -80 -342 -68 -426 26 l-30 35 -170 23 c-210 28 -484 79 -672 126 -97
24 -166 35 -215 35 -120 0 -227 36 -312 105 -22 17 -89 52 -150 76 -176 70
-459 217 -600 311 -487 325 -805 748 -924 1228 -51 208 -62 371 -37 559 14
104 14 105 -10 140 -29 45 -61 137 -70 201 -14 104 43 208 145 263 54 30 185
67 235 67 17 0 45 7 61 16 87 48 106 54 167 54 73 0 174 -33 246 -79 26 -16
95 -45 153 -64 178 -59 313 -138 358 -210 28 -46 42 -152 30 -229 -13 -78 -41
-137 -97 -199 l-45 -50 11 -92 c13 -102 30 -174 62 -259 l21 -57 57 -6 c31 -4
80 -12 108 -19 l50 -12 -33 76 c-36 85 -64 184 -90 324 -23 125 -23 357 0 451
20 81 64 176 104 223 l28 33 2 -88 c0 -48 9 -117 18 -153 58 -226 264 -495
490 -643 237 -155 559 -287 965 -397 63 -17 122 -33 131 -36 10 -3 2 23 -30
86 -38 77 -45 100 -49 168 -4 65 -1 85 16 118 87 171 386 244 589 144 105 -52
143 -132 143 -300 0 -104 -23 -218 -59 -288 l-20 -40 42 -6 c111 -16 303 -35
407 -41 63 -3 132 -8 152 -10 36 -5 34 -3 -96 128 -188 189 -218 255 -165 376
24 58 113 147 179 181 127 65 244 82 366 55 80 -18 126 -36 156 -62 15 -13 18
-12 28 9 21 39 102 118 160 153 119 72 277 96 399 59 29 -8 55 -13 58 -11 11
12 -106 211 -174 295 -20 24 -33 45 -31 47 2 2 67 9 143 15 234 18 520 49 730
80 110 17 203 30 207 30 4 0 33 -51 64 -112 176 -352 345 -587 510 -711 160
-120 404 -225 657 -281 158 -36 156 -36 101 32 -137 168 -139 310 -5 436 94
87 228 132 374 124 150 -8 220 -65 270 -222 30 -98 31 -302 0 -389 l-20 -58
111 6 c210 12 521 52 619 81 12 4 -10 19 -70 48 -203 99 -394 254 -409 332
-16 88 28 194 117 283 71 72 139 112 238 142 63 19 88 21 169 16 52 -4 107
-13 122 -20 l28 -14 28 61 c34 71 135 179 208 221 101 59 270 82 359 51 20 -8
37 -12 37 -10 0 3 -13 31 -29 62 -54 107 -153 244 -249 343 l-94 99 43 0 c121
-1 272 -58 354 -135 l49 -45 41 14 c113 41 170 42 300 10 246 -63 385 -257
300 -423 -52 -104 -227 -253 -349 -298 l-48 -18 7 -40 c3 -22 10 -44 15 -49 5
-5 93 -9 197 -9 253 0 405 22 626 90 112 35 144 53 94 53 -45 0 -150 62 -212
125 -190 194 -143 392 117 489 163 61 331 27 405 -82 60 -90 26 -297 -68 -415
-16 -20 -26 -37 -22 -37 15 0 154 89 218 140 118 94 204 195 251 294 111 236
162 570 171 1121 9 571 -31 1112 -133 1794 -190 1266 -531 2437 -989 3391
-115 238 -232 508 -251 575 -8 28 -34 143 -59 256 -42 195 -132 529 -193 724
l-29 89 -7 -58 c-3 -31 -13 -73 -21 -93 -8 -19 -15 -45 -15 -56 0 -11 24 -122
54 -246 30 -124 65 -275 77 -336 22 -107 24 -111 75 -166 130 -139 169 -337
98 -500 -33 -77 -34 -97 -6 -334 12 -99 27 -252 33 -340 10 -143 14 -163 34
-187 35 -41 65 -130 72 -212 7 -93 -16 -215 -62 -316 -32 -71 -34 -85 -45
-250 -13 -206 -40 -428 -76 -631 l-27 -147 27 -53 c80 -164 15 -395 -165 -583
-47 -50 -90 -102 -94 -116 -17 -57 -166 -352 -228 -453 -54 -89 -137 -210
-215 -317 -11 -16 -11 -24 4 -52 23 -43 30 -162 14 -229 -31 -135 -140 -283
-263 -357 -136 -82 -335 -113 -514 -79 l-83 16 -86 -40 c-47 -23 -87 -39 -89
-37 -1 1 -28 107 -58 233 -137 561 -293 1312 -613 2940 l-76 390 11 110 c26
267 33 501 28 895 -10 660 -51 1090 -212 2230 -116 821 -118 844 -74 985 75
243 357 437 752 517 98 20 141 23 342 23 212 -1 238 -3 341 -27 208 -49 363
-127 465 -235 96 -100 127 -174 150 -347 10 -77 16 -95 47 -135 19 -25 50 -77
69 -116 28 -57 34 -63 29 -35 -11 69 -46 347 -58 470 -20 194 -17 954 4 1140
38 334 38 330 67 336 14 3 107 28 206 55 1348 363 2363 1095 2841 2049 195
388 279 734 277 1140 0 270 -32 449 -116 673 -15 37 -23 67 -19 67 17 0 216
-52 306 -80 165 -51 290 -98 531 -200 320 -136 373 -152 429 -131 l28 11 -3
83 c-4 72 -9 93 -41 158 -129 260 -502 500 -964 619 -123 32 -305 60 -389 60
l-55 0 0 -53 c0 -109 -28 -284 -54 -334 -104 -204 -467 -387 -755 -382 l-66 2
68 8 c81 9 187 56 263 116 196 156 334 546 334 945 l0 88 -39 0 c-126 0 -362
223 -431 406 -49 133 -7 204 132 220 65 7 183 -16 251 -50 l48 -23 -5 26 c-3
14 -10 58 -16 96 -63 410 -199 798 -362 1038 -111 161 -285 293 -413 313 -25
3 -45 10 -45 14 0 20 112 106 178 138 192 92 341 13 487 -259 51 -95 57 -97
19 -6 -21 50 -31 109 -54 312 -46 401 -78 585 -146 845 -296 1133 -997 2114
-1994 2792 -663 452 -1424 762 -2299 938 -107 22 -197 43 -201 47 -3 4 -19 40
-33 78 -15 39 -32 77 -38 85 -9 12 -9 11 -3 -5 83 -212 141 -451 151 -620 11
-207 -58 -361 -154 -343 -30 6 -79 91 -117 205 -102 308 -184 879 -146 1013
13 45 4 50 -91 50 -198 0 -429 -134 -531 -308 l-28 -47 -298 0 -299 0 -18 44
c-68 164 -319 422 -558 574 -198 126 -416 193 -544 167z m247 -57 c79 -26 227
-100 317 -158 295 -191 523 -450 549 -622 5 -37 3 -45 -22 -69 -45 -41 -85
-58 -139 -58 -41 0 -61 7 -110 38 -117 75 -232 173 -395 336 -226 226 -384
427 -397 504 -5 30 -2 35 23 44 34 13 110 6 174 -15z m3487 -1815 c58 -63 87
-213 87 -453 1 -257 -36 -413 -113 -478 -87 -73 -140 -5 -149 189 -10 230 58
641 123 741 19 29 26 29 52 1z m-7044 -1310 c-4 -7 -46 -74 -94 -148 -99 -154
-74 -139 -314 -184 -241 -46 -457 -52 -501 -15 -37 31 -8 84 76 139 151 97
429 182 686 209 125 13 156 13 147 -1z m3492 -2950 c357 -71 701 -249 1007
-522 375 -334 689 -831 841 -1336 81 -266 112 -490 104 -740 -13 -388 -112
-633 -348 -854 -240 -226 -619 -388 -1065 -456 -177 -27 -529 -38 -711 -21
-361 33 -712 123 -1020 262 -63 29 -112 53 -110 55 2 2 43 -12 93 -32 116 -46
323 -99 447 -114 140 -18 434 -8 557 19 150 32 285 80 417 146 152 77 258 153
387 275 224 214 380 486 461 805 l33 130 -81 7 c-190 15 -428 93 -564 186
-150 102 -200 225 -126 312 73 87 259 124 513 101 111 -9 199 -26 253 -46 21
-9 19 9 -19 202 -94 466 -363 961 -696 1278 -190 182 -387 305 -578 361 -45
14 -45 14 30 8 41 -3 120 -15 175 -26z m6394 -876 c59 -36 91 -96 91 -172 0
-127 -109 -200 -253 -170 -97 20 -148 95 -131 194 26 157 163 226 293 148z
m-7904 -1267 c73 -30 119 -104 120 -191 0 -85 -31 -131 -120 -175 -54 -26 -78
-32 -138 -33 -115 -2 -176 47 -185 146 -5 69 11 127 51 180 68 88 169 116 272
73z m-5139 -3239 c229 -39 378 -116 425 -221 24 -51 24 -83 0 -151 -74 -210
-430 -503 -1101 -908 -215 -130 -226 -135 -240 -117 -8 10 -58 74 -110 141
-486 627 -659 798 -907 896 -48 19 -117 49 -153 66 -89 42 -113 49 -205 56
l-80 7 290 53 c523 94 983 159 1290 182 83 6 166 12 185 14 86 10 520 -3 606
-18z m621 -2029 c127 -36 224 -109 264 -200 28 -64 37 -191 19 -280 -20 -106
-110 -360 -135 -385 -7 -7 -344 221 -500 338 -136 102 -351 278 -480 393 l-49
44 149 36 c134 32 273 59 375 71 71 8 306 -3 357 -17z m10224 -8879 c-35 -321
-63 -442 -136 -587 -47 -95 -101 -217 -135 -307 -9 -22 -12 -23 -31 -13 -60
32 -110 94 -163 203 -30 61 -62 134 -72 161 l-17 50 98 95 c127 124 265 277
373 412 47 59 88 106 90 103 3 -2 -1 -55 -7 -117z m-8546 -317 c193 -54 455
-223 611 -395 l56 -61 -5 -70 c-4 -51 -20 -112 -60 -220 -30 -82 -60 -174 -68
-202 -12 -49 -15 -53 -48 -60 -60 -13 -192 -7 -261 12 -198 52 -402 191 -515
350 -88 124 -125 230 -125 357 0 137 50 239 140 284 59 31 175 32 275 5z"/>
<path d="M33780 23143 c-505 -52 -987 -276 -1431 -667 l-87 -75 25 -68 c41
-112 109 -358 143 -518 18 -82 35 -158 38 -168 6 -14 24 3 87 80 107 131 327
351 445 445 294 235 605 385 940 452 196 40 377 50 666 39 356 -15 454 0 454
66 0 40 -52 105 -120 152 -114 79 -400 188 -596 228 -178 36 -407 50 -564 34z"/>
<path d="M33285 21394 c-11 -1 -76 -8 -145 -14 -169 -16 -285 -35 -410 -70
-133 -36 -201 -65 -195 -82 11 -30 45 -417 51 -585 4 -101 8 -183 9 -183 2 0
38 16 81 36 212 97 497 197 719 253 255 64 482 95 835 115 249 14 290 23 290
63 0 27 -145 160 -249 228 -206 136 -433 210 -712 235 -106 9 -228 11 -274 4z"/>
<path d="M29575 13600 c-4 -25 -16 -65 -26 -89 l-19 -43 57 -227 57 -226 55
-58 c30 -31 56 -55 58 -53 2 2 -19 88 -47 192 -27 104 -67 270 -89 369 -36
169 -39 177 -46 135z"/>
<path d="M17198 5497 c-181 -77 -479 -384 -595 -615 -47 -94 -49 -161 -7 -246
97 -199 449 -376 619 -312 168 65 305 430 292 781 -7 191 -45 323 -111 384
-39 36 -122 39 -198 8z"/>
<path d="M29022 3771 c6 -20 13 -80 17 -133 l6 -98 70 43 c83 49 165 108 165
117 0 3 -25 14 -57 24 -31 10 -91 33 -133 51 l-78 32 10 -36z"/>
<path d="M24550 3303 c0 -43 -5 -96 -10 -118 -5 -22 -7 -41 -5 -43 6 -6 156
27 223 49 l63 21 -75 43 c-42 23 -97 58 -123 77 -27 19 -54 37 -60 42 -10 5
-13 -11 -13 -71z"/>
<path d="M21328 3166 c2 -31 -1 -77 -8 -103 l-12 -48 42 -37 c78 -70 408 -280
470 -300 8 -2 42 8 75 23 33 14 75 30 94 34 33 7 32 8 -85 69 -200 103 -398
240 -525 363 l-56 54 5 -55z"/>
<path d="M22296 2585 c12 -26 26 -66 29 -89 l7 -43 168 -57 c93 -31 241 -76
331 -101 l162 -45 56 53 c30 28 54 54 52 57 -2 3 -56 19 -120 36 -211 56 -538
164 -692 228 -14 6 -13 -1 7 -39z"/>
<path d="M23379 2276 c12 -13 35 -48 50 -77 l28 -54 144 -27 c79 -15 218 -39
308 -53 l164 -26 57 60 c56 59 57 60 31 65 -14 3 -107 17 -206 31 -99 15 -270
44 -380 66 -110 21 -204 39 -209 39 -5 0 1 -11 13 -24z"/>
<path d="M24442 2104 c15 -16 36 -50 47 -76 17 -39 25 -48 45 -48 14 0 97 -6
183 -14 321 -29 311 -29 317 -8 4 11 28 42 55 70 l48 50 -116 7 c-107 6 -352
25 -531 41 l-75 7 27 -29z"/>
</g>
</svg>
